<svg id="Layer_1" data-name="Layer 1" xmlns="http://www.w3.org/2000/svg" viewBox="0 0 10.64 6.27"><defs><style>.cls-1{fill:#404a72;}.cls-2{font-size:2.43px;font-family:MyriadPro-Regular, Myriad Pro;}.cls-2,.cls-4{fill:#fff;}.cls-3{letter-spacing:0em;}</style></defs><path class="cls-1" d="M9.3,5.85h-8a1,1,0,0,1-1-1V1.39a1,1,0,0,1,1-1h8a1,1,0,0,1,1,1V4.86a1,1,0,0,1-1,1"/><text class="cls-2" transform="translate(4.8 4.24)">Ch<tspan class="cls-3" x="2.76" y="0">a</tspan><tspan x="3.92" y="0">t</tspan></text><path class="cls-4" d="M2.41,1.85A1.27,1.27,0,0,0,1.14,3.12a1.2,1.2,0,0,0,.17.62l-.17.58a.07.07,0,0,0,0,.06H1.2l.6-.14a1.36,1.36,0,0,0,.6.14,1.27,1.27,0,0,0,0-2.54"/><path class="cls-1" d="M3.05,3.57a.35.35,0,0,1-.22.16.77.77,0,0,1-.21,0l-.18-.07a1.4,1.4,0,0,1-.56-.49.57.57,0,0,1-.13-.33.4.4,0,0,1,.11-.27.16.16,0,0,1,.09,0H2s.05,0,.07.06a2.59,2.59,0,0,1,.1.24,0,0,0,0,1,0,.05s0,0,0,.06,0,0,0,0a.06.06,0,0,0,0,.07,1.14,1.14,0,0,0,.18.22,1.44,1.44,0,0,0,.26.16s0,0,.08,0l.1-.12s0,0,.07,0L3,3.39s.06,0,.06,0,0,.08,0,.15"/></svg>